# xmcd
#
# Track frame offsets: 
#        150
#        20373
#        36192
#        56875
#        78273
#        93580
#        113802
#        134994
#        155933
#        173109
#        195904
#
# Disc length: 2798 seconds
#
# Revision: 0
# Processed by: cddbd v1.5.1PL0 Copyright (c) Steve Scherf et al.
# Submitted via: ExactAudioCopy v0.95a5
#
DISCID=960aec0b
DTITLE=曲比阿乌 - 人间天堂
DYEAR=2004
DGENRE=National Folk
TTITLE0=人间天堂
TTITLE1=家乡美
TTITLE2=有一个美丽的地方
TTITLE3=月儿如此美,阿妹如此美
TTITLE4=赶圩归来啊哩哩
TTITLE5=女儿湖夜曲
TTITLE6=情深谊长
TTITLE7=彝家姑娘
TTITLE8=远方的客人请你留下来
TTITLE9=月琴弹起来
TTITLE10=我们都是一家人
EXTD=
EXTT0=
EXTT1=
EXTT2=
EXTT3=
EXTT4=
EXTT5=
EXTT6=
EXTT7=
EXTT8=
EXTT9=
EXTT10=
PLAYORDER=
